<mxfile host="Electron" modified="2024-05-24T15:07:56.511Z" agent="Mozilla/5.0 (Windows NT 10.0; Win64; x64) AppleWebKit/537.36 (KHTML, like Gecko) draw.io/24.4.6 Chrome/124.0.6367.207 Electron/30.0.6 Safari/537.36" etag="rqOp3dtc7pCbwLaia4Fh" version="24.4.6" type="device">
  <diagram name="Страница — 1" id="9qihZ5jDAKEBjVXOBrbI">
    <mxGraphModel dx="1434" dy="844" grid="1" gridSize="10" guides="1" tooltips="1" connect="1" arrows="1" fold="1" page="1" pageScale="1" pageWidth="827" pageHeight="1169" math="0" shadow="0">
      <root>
        <mxCell id="0" />
        <mxCell id="1" parent="0" />
        <mxCell id="q2iht1n9-AsG_9CM5cro-1" value="&lt;font style=&quot;font-size: 16px;&quot;&gt;Вычислительная система &lt;b&gt;&lt;i&gt;S&lt;/i&gt;&lt;/b&gt;&lt;/font&gt;" style="rounded=0;whiteSpace=wrap;html=1;" vertex="1" parent="1">
          <mxGeometry x="60" y="80" width="180" height="280" as="geometry" />
        </mxCell>
        <mxCell id="q2iht1n9-AsG_9CM5cro-5" value="&lt;font style=&quot;font-size: 16px;&quot;&gt;Область определения &lt;i&gt;&lt;b&gt;S&lt;/b&gt;&lt;/i&gt; (домен &lt;b&gt;&lt;i&gt;S&lt;/i&gt;&lt;/b&gt;)&amp;nbsp;&lt;/font&gt;" style="rounded=0;whiteSpace=wrap;html=1;" vertex="1" parent="1">
          <mxGeometry x="560" y="80" width="180" height="280" as="geometry" />
        </mxCell>
        <mxCell id="q2iht1n9-AsG_9CM5cro-6" value="&lt;font style=&quot;font-size: 15px;&quot;&gt;Метасистема для &lt;b&gt;&lt;i&gt;S&lt;/i&gt;&lt;/b&gt;&lt;/font&gt;" style="rounded=0;whiteSpace=wrap;html=1;" vertex="1" parent="1">
          <mxGeometry x="580" y="100" width="140" height="80" as="geometry" />
        </mxCell>
        <mxCell id="q2iht1n9-AsG_9CM5cro-8" style="edgeStyle=orthogonalEdgeStyle;rounded=0;orthogonalLoop=1;jettySize=auto;html=1;exitX=1;exitY=0.75;exitDx=0;exitDy=0;entryX=0;entryY=0.75;entryDx=0;entryDy=0;" edge="1" parent="1" source="q2iht1n9-AsG_9CM5cro-1" target="q2iht1n9-AsG_9CM5cro-6">
          <mxGeometry relative="1" as="geometry">
            <Array as="points">
              <mxPoint x="500" y="290" />
              <mxPoint x="500" y="160" />
            </Array>
          </mxGeometry>
        </mxCell>
        <mxCell id="q2iht1n9-AsG_9CM5cro-11" value="&lt;font style=&quot;font-size: 16px;&quot;&gt;Овеществление&lt;/font&gt;" style="edgeLabel;html=1;align=center;verticalAlign=middle;resizable=0;points=[];" vertex="1" connectable="0" parent="q2iht1n9-AsG_9CM5cro-8">
          <mxGeometry x="-0.5517" relative="1" as="geometry">
            <mxPoint as="offset" />
          </mxGeometry>
        </mxCell>
        <mxCell id="q2iht1n9-AsG_9CM5cro-7" style="edgeStyle=orthogonalEdgeStyle;rounded=0;orthogonalLoop=1;jettySize=auto;html=1;exitX=0;exitY=0.25;exitDx=0;exitDy=0;entryX=1;entryY=0.25;entryDx=0;entryDy=0;" edge="1" parent="1" source="q2iht1n9-AsG_9CM5cro-6" target="q2iht1n9-AsG_9CM5cro-1">
          <mxGeometry relative="1" as="geometry">
            <Array as="points">
              <mxPoint x="300" y="120" />
              <mxPoint x="300" y="150" />
            </Array>
          </mxGeometry>
        </mxCell>
        <mxCell id="q2iht1n9-AsG_9CM5cro-9" value="&lt;font style=&quot;font-size: 16px;&quot;&gt;Рефлексия&lt;/font&gt;" style="edgeLabel;html=1;align=center;verticalAlign=middle;resizable=0;points=[];" vertex="1" connectable="0" parent="q2iht1n9-AsG_9CM5cro-7">
          <mxGeometry x="-0.0211" y="-3" relative="1" as="geometry">
            <mxPoint as="offset" />
          </mxGeometry>
        </mxCell>
        <mxCell id="q2iht1n9-AsG_9CM5cro-13" value="&lt;font style=&quot;font-size: 16px;&quot;&gt;Инспекция и осуществление действий над доменом &lt;i&gt;&lt;b&gt;S&lt;/b&gt;&lt;/i&gt; и самой &lt;b&gt;&lt;i&gt;S&lt;/i&gt;&lt;/b&gt;&lt;/font&gt;" style="html=1;shadow=0;dashed=0;align=center;verticalAlign=middle;shape=mxgraph.arrows2.twoWayArrow;dy=0.65;dx=22;" vertex="1" parent="1">
          <mxGeometry x="120" y="280" width="560" height="80" as="geometry" />
        </mxCell>
      </root>
    </mxGraphModel>
  </diagram>
</mxfile>
